<svg width="6123" height="3688" viewBox="0 0 6123 3688" fill="none" xmlns="http://www.w3.org/2000/svg">
<rect width="6123" height="3688" fill="black"/>
<rect x="930" y="1452.04" width="785.591" height="785.591" rx="193.329" fill="#F24B00"/>
<path d="M2075.04 1734.34C2174.12 1734.34 2244.2 1795.36 2244.2 1887.8C2244.2 1982.05 2173.52 2043.07 2072.02 2043.07C2024.89 2043.07 1983.2 2024.34 1956.02 1991.11V2037.63H1884.72V1616.53H1956.02V1788.72C1977.16 1755.49 2021.27 1734.34 2075.04 1734.34ZM2064.16 1988.09C2127 1988.09 2172.91 1947.61 2172.91 1887.8C2172.91 1828.59 2127 1788.72 2064.16 1788.72C2001.33 1788.72 1956.02 1827.99 1956.02 1887.8C1956.02 1948.82 2001.33 1988.09 2064.16 1988.09ZM2597.28 1881.76C2597.28 1889.01 2596.68 1899.28 2595.47 1909.55H2339.3C2343.53 1956.07 2380.99 1983.26 2443.22 1983.26C2483.7 1983.26 2523.58 1975.4 2555.6 1957.28L2582.78 2009.24C2536.87 2032.8 2495.18 2043.07 2443.22 2043.07C2335.07 2043.07 2263.78 1982.05 2263.78 1890.22C2263.78 1798.99 2333.87 1734.34 2432.35 1734.34C2541.1 1734.34 2597.28 1800.19 2597.28 1881.76ZM2338.7 1861.82H2523.58V1858.19C2523.58 1824.36 2495.18 1792.34 2434.16 1792.34C2383.41 1792.34 2344.74 1819.53 2338.7 1861.82ZM2818.42 1734.34C2919.92 1734.34 2990.61 1795.36 2990.61 1889.61C2990.61 1982.05 2920.53 2043.07 2821.44 2043.07C2767.67 2043.07 2723.57 2021.92 2702.42 1988.7V2160.88H2631.13V1739.78H2702.42V1786.3C2729.61 1753.07 2771.3 1734.34 2818.42 1734.34ZM2810.57 1988.7C2873.4 1988.7 2919.32 1948.82 2919.32 1889.61C2919.32 1829.8 2873.4 1789.32 2810.57 1789.32C2747.74 1789.32 2702.42 1828.59 2702.42 1889.61C2702.42 1949.42 2747.74 1988.7 2810.57 1988.7ZM3178.15 1734.34C3280.25 1734.34 3332.21 1774.22 3332.21 1853.97V2037.63H3273L3262.73 1986.88C3237.36 2024.95 3192.65 2043.07 3141.9 2043.07C3059.13 2043.07 3010.79 2008.63 3010.79 1948.82C3010.79 1888.4 3055.5 1859.4 3131.02 1859.4H3254.27V1855.17C3254.27 1814.69 3239.17 1786.3 3173.32 1786.3C3129.82 1786.3 3090.54 1796.57 3050.67 1823.76L3025.29 1774.22C3072.42 1746.42 3121.36 1734.34 3178.15 1734.34ZM3155.19 1995.34C3218.63 1995.34 3252.46 1959.09 3254.27 1907.13H3152.17C3114.11 1907.13 3088.73 1918.61 3088.73 1949.42C3088.73 1977.82 3114.11 1995.34 3155.19 1995.34ZM3572.78 1984.47L3573.39 2034.61C3552.85 2039.45 3535.93 2043.07 3510.56 2043.07C3444.7 2043.07 3410.87 2011.05 3410.87 1956.07V1789.92H3350.45V1739.78H3410.87V1663.05L3481.56 1631.03V1739.78H3572.18V1789.92H3481.56V1946.4C3481.56 1976.01 3494.85 1991.11 3526.87 1991.11C3538.95 1991.11 3555.26 1989.3 3572.78 1984.47ZM3781.67 1734.34C3806.44 1734.34 3826.98 1738.57 3849.33 1750.05L3814.29 1806.24C3802.81 1800.19 3782.87 1796.57 3768.98 1796.57C3721.25 1796.57 3678.96 1822.55 3678.96 1882.97V2037.63H3607.67V1739.78H3680.17V1785.09C3701.31 1753.07 3741.79 1734.34 3781.67 1734.34ZM4014.53 2043.07C3908.2 2043.07 3835.09 1982.05 3835.09 1888.4C3835.09 1795.36 3907.59 1734.34 4014.53 1734.34C4122.07 1734.34 4194.57 1794.76 4194.57 1888.4C4194.57 1981.45 4120.86 2043.07 4014.53 2043.07ZM4014.53 1983.26C4078.57 1983.26 4123.28 1947.01 4123.28 1888.4C4123.28 1829.8 4079.18 1794.15 4014.53 1794.15C3949.88 1794.15 3905.78 1829.8 3905.78 1888.4C3905.78 1946.4 3950.49 1983.26 4014.53 1983.26ZM4410.28 1734.34C4488.83 1734.34 4539.58 1773.61 4539.58 1845.51V2037.63H4467.68V1873.3C4467.68 1817.11 4440.49 1789.32 4389.74 1789.32C4332.35 1789.32 4298.51 1823.76 4298.51 1892.63V2037.63H4227.22V1739.78H4298.51V1789.92C4320.26 1754.28 4358.33 1734.34 4410.28 1734.34ZM4661.56 2037.63H4580.6V1957.28H4661.56V2037.63ZM4787.33 1690.84H4696.7V1616.53H4787.33V1690.84ZM4778.27 2037.63H4705.77V1739.78H4778.27V2037.63ZM4990.5 2043.07C4884.16 2043.07 4811.06 1982.05 4811.06 1888.4C4811.06 1795.36 4883.56 1734.34 4990.5 1734.34C5098.04 1734.34 5170.54 1794.76 5170.54 1888.4C5170.54 1981.45 5096.83 2043.07 4990.5 2043.07ZM4990.5 1983.26C5054.54 1983.26 5099.25 1947.01 5099.25 1888.4C5099.25 1829.8 5055.14 1794.15 4990.5 1794.15C4925.85 1794.15 4881.75 1829.8 4881.75 1888.4C4881.75 1946.4 4926.46 1983.26 4990.5 1983.26Z" fill="white"/>
<ellipse cx="1319.85" cy="1801.7" rx="143.462" ry="130.42" fill="white"/>
<path d="M1422.59 2041.69C1519.87 2041.69 1590.55 1981.27 1590.55 1888.83C1590.55 1794.58 1519.87 1734.17 1420.18 1734.17C1367.62 1734.17 1322.3 1756.52 1295.72 1795.79V1739H1237.72V2160.11H1295.72V1978.25C1316.26 2016.92 1363.99 2041.69 1422.59 2041.69ZM1414.14 1779.48C1482.41 1779.48 1532.55 1822.98 1532.55 1888.83C1532.55 1954.08 1482.41 1997.58 1414.14 1997.58C1345.86 1997.58 1295.72 1954.69 1295.72 1888.83C1295.72 1821.77 1345.86 1779.48 1414.14 1779.48Z" fill="black"/>
<ellipse cx="143.462" cy="130.42" rx="143.462" ry="130.42" transform="matrix(1 0 0 -1 1284.05 2017.72)" fill="black"/>
<path d="M1314.94 1647.31C1412.21 1647.31 1482.9 1707.73 1482.9 1800.17C1482.9 1894.42 1412.21 1954.83 1312.52 1954.83C1259.96 1954.83 1214.65 1932.48 1188.06 1893.21V1950H1130.06V1528.89H1188.06V1710.75C1208.6 1672.08 1256.33 1647.31 1314.94 1647.31ZM1306.48 1909.52C1374.75 1909.52 1424.9 1866.02 1424.9 1800.17C1424.9 1734.92 1374.75 1691.42 1306.48 1691.42C1238.21 1691.42 1188.06 1734.31 1188.06 1800.17C1188.06 1867.23 1238.21 1909.52 1306.48 1909.52Z" fill="white"/>
<ellipse cx="1303.66" cy="1809.5" rx="127" ry="122.5" fill="white"/>
</svg>
