<svg width="16" height="16" viewBox="0 0 16 16" fill="none" xmlns="http://www.w3.org/2000/svg">
<path d="M15.2 1.6H12.8V0.8C12.8 0.587827 12.7157 0.384344 12.5657 0.234315C12.4157 0.0842854 12.2122 0 12 0H4C3.78783 0 3.58434 0.0842854 3.43431 0.234315C3.28429 0.384344 3.2 0.587827 3.2 0.8V1.6H0.8C0.587827 1.6 0.384344 1.68429 0.234315 1.83431C0.0842854 1.98434 0 2.18783 0 2.4V4.8C0 8.248 1.44 10.328 3.856 10.4C4.20851 11.0096 4.69082 11.5341 5.26872 11.9364C5.84663 12.3388 6.50597 12.609 7.2 12.728V14.4H5.6V16H10.4V14.4H8.8V12.728C9.49403 12.609 10.1534 12.3388 10.7313 11.9364C11.3092 11.5341 11.7915 11.0096 12.144 10.4C14.544 10.32 16 8.24 16 4.8V2.4C16 2.18783 15.9157 1.98434 15.7657 1.83431C15.6157 1.68429 15.4122 1.6 15.2 1.6ZM1.6 4.8V3.2H3.2V8.664C1.776 8.064 1.6 5.84 1.6 4.8ZM12.8 8.664V3.2H14.4V4.8C14.4 5.84 14.224 8.064 12.8 8.664Z" fill="#C8C8C8"/>
</svg>
