<svg width="16" height="16" viewBox="0 0 16 16" fill="none" xmlns="http://www.w3.org/2000/svg">
<path d="M1.33333 13.3333H10.6667C11.402 13.3333 12 12.7353 12 12V2.66667C12 1.93133 11.402 1.33333 10.6667 1.33333H9.33333V0H8V1.33333H4V0H2.66667V1.33333H1.33333C0.598 1.33333 0 1.93133 0 2.66667V12C0 12.7353 0.598 13.3333 1.33333 13.3333ZM1.33333 3.33333H10.6667V4.66667H1.33333V3.33333Z" fill="#C8C8C8"/>
<circle cx="11" cy="11" r="5" fill="black"/>
<path d="M10.9987 6.83398C8.74036 6.83398 6.83203 8.74232 6.83203 11.0007C6.83203 13.259 8.74036 15.1673 10.9987 15.1673C13.2575 15.1673 15.1654 13.259 15.1654 11.0007C15.1654 8.74232 13.2575 6.83398 10.9987 6.83398ZM13.3135 11.4636H10.5357V8.68584H11.4617V10.5377H13.3135V11.4636Z" fill="#C8C8C8"/>
</svg>
