<svg width="16" height="16" viewBox="0 0 16 16" fill="none" xmlns="http://www.w3.org/2000/svg">
<path d="M15.7926 8.25919L8.59343 0.253384C8.29026 -0.0844612 7.70793 -0.0844612 7.40476 0.253384L0.205564 8.25919C0.101941 8.37415 0.033923 8.51676 0.00978135 8.66969C-0.0143603 8.82262 0.00641428 8.97928 0.0695792 9.12061C0.197565 9.40962 0.483933 9.59536 0.799898 9.59536H2.39972V15.1994C2.39972 15.4117 2.48399 15.6154 2.63401 15.7655C2.78402 15.9157 2.98748 16 3.19963 16H5.59936C5.81151 16 6.01497 15.9157 6.16498 15.7655C6.315 15.6154 6.39927 15.4117 6.39927 15.1994V11.9971H9.59891V15.1994C9.59891 15.4117 9.68319 15.6154 9.8332 15.7655C9.98322 15.9157 10.1867 16 10.3988 16H12.7986C13.0107 16 13.2142 15.9157 13.3642 15.7655C13.5142 15.6154 13.5985 15.4117 13.5985 15.1994V9.59536H15.1983C15.3532 9.59602 15.505 9.55155 15.6351 9.46738C15.7652 9.38321 15.868 9.26297 15.931 9.12133C15.994 8.97968 16.0145 8.82275 15.9899 8.66966C15.9653 8.51658 15.8968 8.37396 15.7926 8.25919Z" fill="white"/>
</svg>
