<svg width="17" height="14" viewBox="0 0 17 14" fill="none" xmlns="http://www.w3.org/2000/svg">
<path d="M2.00484 7.56817C2.00484 8.66857 2.90435 9.56407 4.00969 9.56407C5.11502 9.56407 6.01453 8.66857 6.01453 7.56817C6.01453 6.46776 5.11502 5.57227 4.00969 5.57227C2.90435 5.57227 2.00484 6.46776 2.00484 7.56817ZM7.57385 13.9994H8.01937V13.5559C8.01937 11.8443 6.61999 10.4511 4.90073 10.4511H3.11865C1.39894 10.4511 0 11.8443 0 13.5559V13.9994H7.57385Z" fill="#C8C8C8"/>
<path d="M10.4697 7.56817C10.4697 8.66857 11.3692 9.56407 12.4745 9.56407C13.5799 9.56407 14.4794 8.66857 14.4794 7.56817C14.4794 6.46776 13.5799 5.57227 12.4745 5.57227C11.3692 5.57227 10.4697 6.46776 10.4697 7.56817ZM16.0387 13.9994H16.4842V13.5559C16.4842 11.8443 15.0848 10.4511 13.3656 10.4511H11.5835C9.86378 10.4511 8.46484 11.8443 8.46484 13.5559V13.9994H16.0387Z" fill="#C8C8C8"/>
<path d="M10.5246 2.88713e-07H5.95759C5.64275 2.88713e-07 5.38672 0.255179 5.38672 0.568587V3.99838C5.38672 4.31179 5.64275 4.56697 5.95759 4.56697H6.8139V5.70871L8.62669 4.56697H10.5246C10.8394 4.56697 11.0954 4.31179 11.0954 3.99838V0.568587C11.095 0.417533 11.0346 0.272828 10.9276 0.16623C10.8206 0.0596314 10.6756 -0.000151599 10.5246 2.88713e-07Z" fill="#C8C8C8"/>
</svg>
