<svg width="16" height="16" viewBox="0 0 16 16" fill="none" xmlns="http://www.w3.org/2000/svg">
<path d="M2.4 8H1.6V14.4C1.6 14.8243 1.76857 15.2313 2.06863 15.5314C2.36869 15.8314 2.77565 16 3.2 16H7.2V8H2.4ZM12.8 8H8.8V16H12.8C13.2243 16 13.6313 15.8314 13.9314 15.5314C14.2314 15.2313 14.4 14.8243 14.4 14.4V8H12.8ZM13.4328 4C13.5501 3.61103 13.6065 3.20623 13.6 2.8C13.6 1.256 12.344 0 10.8 0C9.5024 0 8.636 1.1856 8.0768 2.468C7.5256 1.256 6.6152 0 5.2 0C3.656 0 2.4 1.256 2.4 2.8C2.4 3.2768 2.4632 3.6712 2.5672 4H0V7.2H7.2V5.6H8.8V7.2H16V4H13.4328ZM4 2.8C4 2.1384 4.5384 1.6 5.2 1.6C5.9104 1.6 6.5712 2.82 6.9584 4H4.8C4.5008 4 4 4 4 2.8ZM10.8 1.6C11.4616 1.6 12 2.1384 12 2.8C12 4 11.4992 4 11.2 4H9.2184C9.6264 2.7392 10.2192 1.6 10.8 1.6Z" fill="#C8C8C8"/>
</svg>
