<svg width="16" height="16" viewBox="0 0 16 16" fill="none" xmlns="http://www.w3.org/2000/svg">
<path d="M0.107333 9.30414C-0.0382851 8.42765 -0.0334784 7.54717 0.108037 6.69579C0.988776 6.71722 1.78087 6.29468 2.08872 5.55146C2.39657 4.80824 2.13526 3.94937 1.49736 3.34172C1.9993 2.63964 2.6185 2.01365 3.34124 1.49685C3.94892 2.13512 4.80805 2.39665 5.55148 2.08871C6.2949 1.78078 6.71749 0.988348 6.69582 0.107332C7.57231 -0.038286 8.4528 -0.0334792 9.30418 0.108043C9.28275 0.988772 9.70536 1.78086 10.4485 2.08871C11.1918 2.39657 12.0507 2.13525 12.6583 1.49736C13.3604 1.9993 13.9864 2.61849 14.5031 3.34123C13.8649 3.9489 13.6034 4.80804 13.9113 5.55146C14.2192 6.29488 15.0117 6.71746 15.8927 6.69579C16.0383 7.57228 16.0335 8.45277 15.892 9.30414C15.0113 9.28279 14.2191 9.70532 13.9113 10.4485C13.6035 11.1917 13.8648 12.0506 14.5027 12.6582C14.0007 13.3604 13.3815 13.9864 12.6587 14.5031C12.0511 13.8649 11.1919 13.6033 10.4485 13.9112C9.70512 14.2192 9.28259 15.0116 9.30418 15.8926C8.42769 16.0383 7.5472 16.0335 6.69582 15.8919C6.71725 15.0112 6.2947 14.2191 5.55148 13.9112C4.80825 13.6034 3.94937 13.8647 3.34173 14.5026C2.63965 14.0007 2.01365 13.3815 1.49685 12.6588C2.13513 12.0511 2.39666 11.192 2.08872 10.4485C1.78079 9.70508 0.988352 9.28255 0.107333 9.30414ZM8.00004 10.3994C9.32514 10.3994 10.3994 9.3251 10.3994 8.00001C10.3994 6.67484 9.32514 5.60062 8.00004 5.60062C6.67486 5.60062 5.60063 6.67484 5.60063 8.00001C5.60063 9.3251 6.67486 10.3994 8.00004 10.3994Z" fill="#C8C8C8"/>
</svg>
