<svg width="16" height="17" viewBox="0 0 16 17" fill="none" xmlns="http://www.w3.org/2000/svg">
<path d="M4.3287 1.7C4.3287 2.63888 3.55349 3.4 2.59722 3.4C1.64095 3.4 0.865741 2.63888 0.865741 1.7C0.865741 0.761115 1.64095 0 2.59722 0C3.55349 0 4.3287 0.761115 4.3287 1.7ZM1.73148 11.9V17H0V6.8C0 5.39168 1.16282 4.25 2.59722 4.25C3.30764 4.25 3.95144 4.53004 4.42034 4.98383L6.476 6.88984L8.47829 4.92396L9.70262 6.12604L6.51046 9.26016L5.19444 8.0399V17H3.46296V11.9H1.73148ZM6.06018 2.55H13.8519V10.2H6.06018V11.9H9.83949L12.2839 17H14.1975L11.7531 11.9H14.7176C15.1957 11.9 15.5833 11.5195 15.5833 11.05V1.7C15.5833 1.23056 15.1957 0.85 14.7176 0.85H6.06018V2.55Z" fill="#C8C8C8"/>
</svg>
